<svg width="519" height="687" viewBox="0 0 519 687" fill="none" xmlns="http://www.w3.org/2000/svg">
<g clip-path="url(#clip0_27_3033)">
<path d="M369.715 474.135C368.935 474.137 368.157 474.068 367.389 473.929L236.255 449.222C233.032 448.611 230.184 446.743 228.337 444.031C226.491 441.319 225.797 437.983 226.408 434.759C227.019 431.534 228.886 428.685 231.597 426.838C234.308 424.99 237.642 424.296 240.865 424.907L371.999 449.614C375.086 450.117 377.867 451.774 379.78 454.25C381.693 456.726 382.596 459.835 382.306 462.951C382.016 466.067 380.555 468.956 378.218 471.036C375.881 473.115 372.842 474.23 369.715 474.155V474.135Z" fill="#ECCF63"/>
<path d="M349.217 445.29C338.269 443.231 332.918 467.402 341.603 469.049" stroke="#D6C14E" stroke-width="1.2" stroke-linecap="round" stroke-linejoin="round"/>
<path d="M327.362 441.152C316.434 439.093 311.062 463.264 319.768 464.911" stroke="#D6C14E" stroke-width="1.2" stroke-linecap="round" stroke-linejoin="round"/>
<path d="M305.527 437.034C294.578 434.975 289.227 459.146 297.912 460.793" stroke="#D6C14E" stroke-width="1.2" stroke-linecap="round" stroke-linejoin="round"/>
<path d="M283.733 432.896C272.805 430.837 267.434 455.008 276.139 456.655" stroke="#D6C14E" stroke-width="1.2" stroke-linecap="round" stroke-linejoin="round"/>
<path d="M261.836 428.757C250.887 426.699 245.537 450.87 254.242 452.517" stroke="#D6C14E" stroke-width="1.2" stroke-linecap="round" stroke-linejoin="round"/>
<path opacity="0.15" d="M226.109 437.034C226.117 439.908 227.126 442.689 228.963 444.899C230.8 447.109 233.35 448.608 236.173 449.14L367.307 473.846C368.074 473.985 368.853 474.054 369.632 474.052C372.515 474.053 375.307 473.045 377.525 471.202C379.743 469.36 381.246 466.799 381.774 463.964V463.531L226.109 437.034Z" fill="black"/>
<path d="M510.974 366.086C501.178 363.491 485.764 362.689 472.778 373.045C462.2 381.486 449.976 419.554 445.88 432.752L376.547 432.587C372.735 433.058 369.177 434.748 366.401 437.405C354.795 448.934 352.592 461.823 353.58 474.093C354.198 481.67 359.343 486.9 363.026 487.538C364.138 487.764 455.347 506.232 468.292 508.518C489.839 512.326 485.146 512.285 497.885 494.003C506.261 481.999 506.261 464.252 506.261 452.517C506.261 440.781 511.53 421.366 515.975 406.151C520.42 390.936 520.77 368.68 510.974 366.086Z" fill="#EBCA50"/>
<path opacity="0.15" d="M497.062 366.353C485.537 370.636 478.396 380.765 474.898 396.269C471.399 411.772 474.507 424.598 471.234 446.978C469.055 459.162 465.175 470.978 459.71 482.082C455.265 490.503 448.947 494.003 437.072 491.944C425.198 489.885 383.256 483.708 372.287 478.623C369.197 477.246 366.588 474.978 364.792 472.111C362.995 469.243 362.094 465.905 362.203 462.523C369.317 462.486 376.368 461.19 383.03 458.693C392.394 454.74 391.694 450.252 391.406 447.802L380.087 432.587H376.588C372.776 433.058 369.218 434.748 366.442 437.405C354.836 448.934 352.633 461.823 353.621 474.093C354.239 481.67 359.384 486.9 363.067 487.538C364.179 487.764 455.388 506.232 468.333 508.518C489.88 512.326 485.187 512.285 497.926 494.003C506.302 481.999 506.302 464.252 506.302 452.517C506.302 440.781 511.571 421.366 516.016 406.151C517.518 400.926 518.463 395.557 518.835 390.133C510.109 375.845 501.548 364.665 497.062 366.353Z" fill="black"/>
<path d="M510.974 366.086L509.06 365.612C506.942 365.149 504.798 364.819 502.639 364.624C487.842 367.589 480.866 380.683 478.746 398.677C476.626 416.672 478.561 436.828 477.244 449.367C475.927 461.905 468.127 482.082 468.642 495.403C468.563 500.445 470.115 505.377 473.066 509.465C489.098 512.285 486.134 510.844 497.762 494.085C506.138 482.082 506.138 464.334 506.138 452.599C506.138 440.863 511.406 421.448 515.851 406.233C520.297 391.018 520.77 368.68 510.974 366.086Z" fill="#ECCF63"/>
<path opacity="0.15" d="M445.88 432.752C443.034 444.072 440.829 455.545 439.274 467.114C437.703 455.714 437.703 444.152 439.274 432.752H445.88Z" fill="black"/>
<path d="M489.53 386.654C482.8 403.948 485.414 430.219 483.932 447.225C482.45 464.231 474.754 488.032 475.927 497.029C477.1 506.026 481.607 512.306 488.48 508.291C492.11 505.582 495.05 502.055 497.062 497.997C499.12 494.023 500.54 489.761 501.528 487.311C506.282 476.029 506.282 462.214 506.282 452.496C506.282 440.76 511.55 421.345 515.995 406.13C519.329 394.745 520.358 379.365 516.551 371.377C513.588 364.789 496.918 367.65 489.53 386.654Z" fill="#D6C14E"/>
<path d="M484.508 430.013C484.508 430.816 484.508 431.619 484.508 432.422L513.32 415.807C513.567 414.86 513.835 413.913 514.102 412.966L484.508 430.013Z" fill="#948837"/>
<path d="M517.148 372.818L488.604 389.289C488.316 390.216 488.048 391.163 487.781 392.151L517.786 374.815C517.601 374.136 517.374 373.456 517.148 372.818Z" fill="#948837"/>
<path d="M510.11 428.037L484.22 442.984C484.22 443.828 484.117 444.652 484.076 445.455L509.451 430.796C509.636 429.869 509.863 428.963 510.11 428.037Z" fill="#948837"/>
<path d="M479.24 473.743L506.261 458.137C506.261 457.334 506.261 456.531 506.261 455.749L479.796 471.046C479.61 471.952 479.425 472.858 479.24 473.743Z" fill="#948837"/>
<path d="M484.755 417.104V419.513L517.415 400.654C517.601 399.769 517.765 398.883 517.93 397.977L484.755 417.104Z" fill="#948837"/>
<path d="M482.656 456.655C482.492 457.54 482.347 458.425 482.183 459.311L506.879 445.084C506.981 444.24 507.105 443.375 507.228 442.51L482.656 456.655Z" fill="#948837"/>
<path d="M518.959 386.942C518.959 386.139 518.959 385.336 518.959 384.554L485.681 403.783C485.681 404.628 485.496 405.451 485.414 406.316L518.959 386.942Z" fill="#948837"/>
<path d="M502.001 486.179C502.372 485.191 502.701 484.12 503.03 483.194L476.276 498.676C476.426 499.378 476.632 500.067 476.894 500.735L502.001 486.179Z" fill="#948837"/>
<path d="M505.438 471.499C505.438 470.635 505.644 469.79 505.726 468.946L476.914 485.664C476.75 486.57 476.606 487.455 476.482 488.3L505.438 471.499Z" fill="#948837"/>
<path d="M361.73 457.273C377.741 458.796 390.747 452.97 391.365 447.802C391.365 447.802 395.234 426.225 366.669 423.919C338.104 421.613 337.322 442.552 337.322 442.552C337.24 447.493 345.698 455.77 361.73 457.273Z" fill="#EBCA50"/>
<path opacity="0.7" d="M361.73 457.273C377.741 458.796 390.747 452.97 391.365 447.802C391.365 447.802 395.234 426.225 366.669 423.919C338.104 421.613 337.322 442.552 337.322 442.552C337.24 447.493 345.698 455.77 361.73 457.273Z" fill="white"/>
<path d="M391.365 447.802C391.76 444.863 391.495 441.873 390.591 439.049C389.687 436.225 388.166 433.638 386.137 431.475C387.228 433.534 391.797 444.034 375.065 448.852C356.42 454.184 339.318 442.469 338.372 437.858C337.82 439.369 337.473 440.948 337.343 442.552C337.343 447.493 345.698 455.77 361.73 457.273C377.761 458.776 390.747 452.97 391.365 447.802Z" fill="#EBCA50"/>
<path opacity="0.05" d="M391.365 447.802C391.76 444.863 391.495 441.873 390.591 439.049C389.687 436.225 388.166 433.638 386.137 431.475C387.228 433.534 391.797 444.034 375.065 448.852C356.42 454.184 339.318 442.469 338.372 437.858C337.82 439.369 337.473 440.948 337.343 442.552C337.343 447.493 345.698 455.77 361.73 457.273C377.761 458.776 390.747 452.97 391.365 447.802Z" fill="black"/>
<path d="M330.366 250.151C329.955 245.684 328.308 236.398 320.509 232.733C312.709 229.069 308.49 232.733 309.601 236.151C310.713 239.569 318.759 240.66 319.089 252.396C319.089 252.396 326.086 255.422 330.366 250.151Z" fill="#ECCF63"/>
<path opacity="0.15" d="M323.575 248.34C323.14 245.836 322.182 243.453 320.764 241.346C319.345 239.238 317.498 237.454 315.343 236.11C312.853 234.154 312.462 232.116 315.343 231.251C310.898 230.86 308.696 233.557 309.54 236.151C310.671 239.631 318.698 240.66 319.027 252.396C320.631 253.023 322.348 253.31 324.069 253.24C324.028 251.778 323.842 250.048 323.575 248.34Z" fill="black"/>
<path d="M313.614 258.284C318.656 247.99 334.667 246.672 347.118 258.284C365.805 275.722 368.871 292.996 360.989 302.179C353.107 311.361 341.068 308.726 330.366 299.09C322.134 291.617 306.37 273.046 313.614 258.284Z" fill="#EBCA50"/>
<path opacity="0.1" d="M360.989 302.138C363.445 299.207 364.857 295.542 365.002 291.72C364.035 296.867 361.442 300.511 357.943 301.746C353.663 303.27 346.048 305.638 333.412 292.564C320.776 279.49 314.149 257.769 322.752 250.831C320.793 251.354 318.967 252.284 317.392 253.561C315.818 254.838 314.53 256.434 313.614 258.243C306.329 273.046 322.134 291.617 330.366 299.049C341.068 308.685 353.107 311.341 360.989 302.138Z" fill="black"/>
<path d="M286.634 298.082C254.962 281.22 237.716 272.799 222.117 280.89L214.523 266.231C238.54 253.775 261.959 266.231 294.393 283.525L286.634 298.082Z" fill="#ECCF63"/>
<path d="M241.606 261.66C245.722 264.563 247.78 273.561 243.664 278.872" stroke="#D6C14E" stroke-width="1.02" stroke-linecap="round" stroke-linejoin="round"/>
<path d="M261.815 267.425C264.696 269.793 266.651 279.469 261.095 285.131" stroke="#D6C14E" stroke-width="1.02" stroke-linecap="round" stroke-linejoin="round"/>
<path opacity="0.15" d="M222.117 280.931C237.716 272.84 255.045 281.261 286.634 298.123L289.845 292.111C282.597 287.469 275.032 283.342 267.207 279.758C244.919 269.669 236.44 268.537 218.968 275.064L222.117 280.931Z" fill="black"/>
<path d="M213.354 301.605C227.004 295.948 233.487 280.291 227.832 266.634C222.178 252.977 206.528 246.492 192.877 252.149C179.226 257.806 172.744 273.463 178.398 287.119C184.053 300.776 199.703 307.261 213.354 301.605Z" fill="#EBCA50"/>
<path opacity="0.25" d="M213.354 301.605C227.004 295.948 233.487 280.291 227.832 266.634C222.178 252.977 206.528 246.492 192.877 252.149C179.226 257.806 172.744 273.463 178.398 287.119C184.053 300.776 199.703 307.261 213.354 301.605Z" fill="black"/>
<path d="M176.615 489.761C213.372 489.761 243.17 459.951 243.17 423.178C243.17 386.405 213.372 356.594 176.615 356.594C139.858 356.594 110.06 386.405 110.06 423.178C110.06 459.951 139.858 489.761 176.615 489.761Z" fill="#EBCA50"/>
<path opacity="0.35" d="M176.615 489.761C213.372 489.761 243.17 459.951 243.17 423.178C243.17 386.405 213.372 356.594 176.615 356.594C139.858 356.594 110.06 386.405 110.06 423.178C110.06 459.951 139.858 489.761 176.615 489.761Z" fill="black"/>
<path opacity="0.15" d="M180.834 475.329C164.37 473.435 156.509 463.49 156.509 463.49C156.509 463.49 214.256 463.655 241.915 409.96C239.89 400.007 235.619 390.648 229.427 382.598C223.235 374.548 215.287 368.02 206.188 363.512L128.418 377.348C122.012 384.134 117.105 392.193 114.014 401C110.923 409.807 109.718 419.165 110.476 428.468C111.234 437.771 113.938 446.811 118.414 455.001C122.89 463.191 129.037 470.347 136.457 476.007C143.876 481.666 152.402 485.702 161.481 487.852C170.56 490.002 179.989 490.218 189.157 488.486C198.325 486.754 207.027 483.114 214.698 477.8C222.368 472.487 228.837 465.619 233.683 457.643C220.388 473.27 197.545 477.285 180.834 475.329Z" fill="black"/>
<path d="M241.38 387.58L241.03 386.88C240.927 386.695 240.844 386.51 240.762 386.345C233.364 370.404 227.3 353.876 222.631 336.932C217.247 316.899 214.046 296.342 213.082 275.619H59.6812C59.6812 333.103 70.7119 389.577 95.8398 433.287C100.12 441.708 109.175 448.667 122.593 452.743C155.706 462.77 202.998 451.693 228.229 428.037C242.841 414.448 246.854 399.624 241.38 387.58Z" fill="#EBCA50"/>
<path opacity="0.1" d="M224.566 431.351C213.823 439.257 189.457 449.078 171.223 448.914C150.355 448.708 108.517 437.137 93.5554 404.463C78.594 371.789 73.8195 311.341 73.8195 311.341C73.8195 311.341 91.5386 321.511 131.649 320.523L126.401 275.681H59.7224C59.7224 333.164 70.7531 389.639 95.8809 433.349C100.162 441.769 109.217 448.728 122.635 452.805C154.204 462.358 198.615 452.743 224.566 431.351Z" fill="black"/>
<path d="M232.613 367.053C232.407 366.497 232.18 365.942 231.975 365.365C231.769 364.789 231.728 364.706 231.584 364.377V364.15C228.805 356.636 225.718 347.515 222.714 336.994C219.418 325.07 216.977 312.926 215.408 300.655V300.49C217.116 312.947 209.728 325.773 193.182 335.306C173.425 346.712 145.56 350.624 120.289 346.959C123.252 375.309 132.801 405.142 148.524 427.625C173.22 429.437 202.216 420.275 218.639 404.978C231.995 392.254 236.399 378.583 232.613 367.053Z" fill="#D6C14E"/>
<path d="M228.702 365.55C228.497 365.015 228.311 364.439 228.106 363.862L227.735 362.874V362.647C225.101 355.071 222.179 345.888 219.4 335.326C217.351 327.464 215.716 319.498 214.502 311.464C211.93 320.194 204.83 328.573 193.141 335.306C173.384 346.712 145.519 350.624 120.247 346.959C123.005 373.23 131.402 400.736 145.128 422.519C169.124 424.022 197.936 417.537 213.947 403.125C227.591 390.751 232.283 377.162 228.702 365.55Z" fill="#ECCF63"/>
<path d="M183.262 358.53L175.525 355.03C175.525 355.03 147.269 361.638 130.249 360.053C130.361 368.517 131.452 376.939 133.501 385.151C135.467 392.994 138.588 400.502 142.762 407.428L151.673 411.751L183.262 358.53Z" fill="#948837"/>
<path d="M136.567 367.115C136.567 377.883 145.478 404.36 151.693 411.751C151.693 411.751 182.913 410.289 196.351 397.977C195.919 394.539 183.262 358.53 183.262 358.53C175.01 364.624 150.623 367.136 136.567 367.115Z" fill="#D6C14E"/>
<path d="M186.576 396.33C188.292 396.33 189.683 394.938 189.683 393.221C189.683 391.504 188.292 390.113 186.576 390.113C184.86 390.113 183.468 391.504 183.468 393.221C183.468 394.938 184.86 396.33 186.576 396.33Z" fill="#EBCA50"/>
<path d="M177.047 397.854C177.888 397.854 178.57 397.172 178.57 396.33C178.57 395.489 177.888 394.807 177.047 394.807C176.206 394.807 175.524 395.489 175.524 396.33C175.524 397.172 176.206 397.854 177.047 397.854Z" fill="#EBCA50"/>
<path d="M185.094 375.886C184.958 375.915 184.818 375.915 184.682 375.886C184.482 375.887 184.285 375.829 184.117 375.719C183.949 375.609 183.816 375.452 183.736 375.268C183.638 375.014 183.641 374.731 183.744 374.479C183.847 374.226 184.043 374.022 184.291 373.909C185.657 373.341 186.766 372.291 187.411 370.96C188.055 369.629 188.19 368.107 187.79 366.683L180.525 341.112C181.163 340.865 181.822 340.618 182.439 340.35L189.766 366.127C190.329 368.044 190.163 370.101 189.3 371.903C188.438 373.704 186.94 375.123 185.094 375.886Z" fill="#EBCA50"/>
<path d="M172.602 379.859C172.466 379.888 172.326 379.888 172.19 379.859C171.988 379.856 171.791 379.794 171.623 379.68C171.455 379.567 171.323 379.408 171.244 379.221C171.146 378.967 171.149 378.684 171.252 378.432C171.355 378.179 171.551 377.975 171.799 377.862C173.159 377.294 174.264 376.247 174.905 374.919C175.546 373.592 175.678 372.075 175.277 370.656L167.972 344.879L170.03 344.385L177.335 370.101C177.894 372.025 177.72 374.088 176.845 375.891C175.971 377.694 174.459 379.108 172.602 379.859Z" fill="#EBCA50"/>
<path d="M160.254 383.874C160.126 383.903 159.992 383.903 159.863 383.874C159.659 383.879 159.458 383.823 159.286 383.713C159.113 383.603 158.978 383.444 158.896 383.257C158.798 383.002 158.801 382.719 158.904 382.467C159.008 382.214 159.203 382.011 159.452 381.898C160.816 381.329 161.924 380.279 162.565 378.946C163.206 377.614 163.336 376.093 162.93 374.671L155.151 347.268L157.208 347L164.885 374.115C165.455 376.027 165.297 378.082 164.442 379.884C163.587 381.686 162.095 383.108 160.254 383.874Z" fill="#EBCA50"/>
<g opacity="0.3">
<path d="M185.094 375.886C184.958 375.915 184.818 375.915 184.682 375.886C184.482 375.887 184.285 375.829 184.117 375.719C183.949 375.609 183.816 375.452 183.736 375.268C183.638 375.014 183.641 374.731 183.744 374.479C183.847 374.226 184.043 374.022 184.291 373.909C185.657 373.341 186.766 372.291 187.411 370.96C188.055 369.629 188.19 368.107 187.79 366.683L180.525 341.112C181.163 340.865 181.822 340.618 182.439 340.35L189.766 366.127C190.329 368.044 190.163 370.101 189.3 371.903C188.438 373.704 186.94 375.123 185.094 375.886Z" fill="black"/>
<path d="M172.602 379.859C172.466 379.888 172.326 379.888 172.19 379.859C171.988 379.856 171.791 379.794 171.623 379.68C171.455 379.567 171.323 379.408 171.244 379.221C171.146 378.967 171.149 378.684 171.252 378.432C171.355 378.179 171.551 377.975 171.799 377.862C173.159 377.294 174.264 376.247 174.905 374.919C175.546 373.592 175.678 372.075 175.277 370.656L167.972 344.879L170.03 344.385L177.335 370.101C177.894 372.025 177.72 374.088 176.845 375.891C175.971 377.694 174.459 379.108 172.602 379.859Z" fill="black"/>
<path d="M160.254 383.874C160.126 383.903 159.992 383.903 159.863 383.874C159.659 383.879 159.458 383.823 159.286 383.713C159.113 383.603 158.978 383.444 158.896 383.257C158.798 383.002 158.801 382.719 158.904 382.467C159.008 382.214 159.203 382.011 159.452 381.898C160.816 381.329 161.924 380.279 162.565 378.946C163.206 377.614 163.336 376.093 162.93 374.671L155.151 347.268L157.208 347L164.885 374.115C165.455 376.027 165.297 378.082 164.442 379.884C163.587 381.686 162.095 383.108 160.254 383.874Z" fill="black"/>
</g>
<path d="M193.182 335.306C191.597 336.232 189.93 337.076 188.243 337.9C190.054 347.103 193.388 361.412 196.763 369.174C196.763 369.174 213.226 364.192 218.68 353.362C215.195 342.448 212.444 331.312 210.448 320.029C205.934 326.373 200.028 331.599 193.182 335.306Z" fill="#D6C14E"/>
<path d="M208.164 332.979C208.164 333.333 208.059 333.68 207.862 333.974C207.665 334.269 207.386 334.498 207.059 334.634C206.731 334.77 206.371 334.805 206.024 334.736C205.677 334.667 205.358 334.496 205.107 334.246C204.857 333.995 204.686 333.676 204.617 333.329C204.548 332.981 204.584 332.621 204.719 332.294C204.855 331.966 205.084 331.687 205.379 331.49C205.673 331.293 206.019 331.188 206.373 331.188C206.609 331.188 206.841 331.234 207.059 331.324C207.276 331.414 207.473 331.546 207.639 331.713C207.806 331.879 207.938 332.076 208.028 332.294C208.118 332.511 208.164 332.744 208.164 332.979Z" fill="#EBCA50"/>
<path d="M210.695 341.112C210.695 341.467 210.59 341.814 210.392 342.109C210.194 342.404 209.913 342.633 209.585 342.768C209.257 342.903 208.896 342.938 208.548 342.867C208.2 342.796 207.881 342.623 207.631 342.371C207.382 342.118 207.213 341.797 207.146 341.448C207.08 341.1 207.118 340.739 207.257 340.412C207.395 340.085 207.628 339.807 207.925 339.612C208.222 339.418 208.57 339.316 208.925 339.32C209.16 339.32 209.391 339.367 209.607 339.457C209.824 339.547 210.02 339.68 210.184 339.846C210.349 340.013 210.479 340.211 210.566 340.428C210.654 340.645 210.698 340.877 210.695 341.112Z" fill="#EBCA50"/>
<path d="M214.276 349.388C214.276 349.743 214.171 350.089 213.974 350.383C213.778 350.678 213.498 350.908 213.171 351.043C212.844 351.179 212.484 351.214 212.136 351.145C211.789 351.076 211.47 350.905 211.22 350.655C210.969 350.404 210.799 350.085 210.73 349.738C210.66 349.39 210.696 349.03 210.832 348.703C210.967 348.376 211.197 348.096 211.491 347.899C211.785 347.702 212.132 347.597 212.486 347.597C212.961 347.597 213.416 347.786 213.752 348.122C214.087 348.458 214.276 348.913 214.276 349.388Z" fill="#EBCA50"/>
<path d="M199.603 362.73C199.397 362.73 199.195 362.67 199.023 362.556C198.851 362.443 198.716 362.281 198.635 362.092C196.288 354.793 194.377 347.361 192.914 339.835C192.872 339.566 192.937 339.29 193.094 339.067C193.252 338.844 193.49 338.691 193.758 338.641C194.03 338.605 194.305 338.674 194.527 338.835C194.749 338.996 194.901 339.236 194.952 339.506C196.399 346.848 198.268 354.1 200.549 361.227C200.652 361.478 200.651 361.76 200.547 362.01C200.443 362.261 200.244 362.46 199.994 362.565C199.878 362.649 199.744 362.705 199.603 362.73Z" fill="#EBCA50"/>
<path d="M205.262 359.168C205.056 359.168 204.855 359.108 204.683 358.994C204.511 358.881 204.376 358.719 204.295 358.53C201.957 351.229 200.046 343.797 198.574 336.273C198.527 336 198.591 335.72 198.751 335.494C198.912 335.268 199.155 335.115 199.428 335.069C199.701 335.023 199.981 335.086 200.207 335.247C200.432 335.407 200.585 335.65 200.632 335.923C202.071 343.294 203.94 350.574 206.229 357.727C206.333 357.981 206.332 358.265 206.228 358.519C206.125 358.773 205.925 358.977 205.674 359.086C205.542 359.134 205.403 359.162 205.262 359.168Z" fill="#EBCA50"/>
<path d="M338.742 345.415C338.742 345.415 325.386 366.6 294.558 377.883C277.206 384.099 258.762 386.678 240.371 385.46C233.186 369.801 227.261 353.595 222.652 336.994C219.349 325.072 216.907 312.928 215.346 300.655C215.346 300.655 239.136 303.743 264.614 287.787C293.673 269.608 300.32 250.11 300.32 250.11C318.348 275.537 331.066 307.573 338.742 345.415Z" fill="#EBCA50"/>
<path opacity="0.25" d="M338.742 345.415C338.742 345.415 325.386 366.6 294.558 377.883C277.206 384.099 258.762 386.678 240.371 385.46C233.186 369.801 227.261 353.595 222.652 336.994C219.349 325.072 216.907 312.928 215.346 300.655C215.346 300.655 239.136 303.743 264.614 287.787C293.673 269.608 300.32 250.11 300.32 250.11C318.348 275.537 331.066 307.573 338.742 345.415Z" fill="black"/>
<path opacity="0.25" d="M338.742 345.415C330.984 307.573 318.348 275.537 300.32 250.11C299.408 252.435 298.278 254.669 296.945 256.781C312.338 274.734 330.922 319.494 333.988 351.488C335.714 349.578 337.302 347.549 338.742 345.415Z" fill="black"/>
<path d="M301.925 320.75C304.846 320.75 307.214 318.381 307.214 315.458C307.214 312.536 304.846 310.167 301.925 310.167C299.004 310.167 296.636 312.536 296.636 315.458C296.636 318.381 299.004 320.75 301.925 320.75Z" fill="#D6C14E"/>
<path d="M136.382 320.606C178.754 320.606 213.103 300.769 213.103 276.299C213.103 251.829 178.754 231.992 136.382 231.992C94.0099 231.992 59.6606 251.829 59.6606 276.299C59.6606 300.769 94.0099 320.606 136.382 320.606Z" fill="#EBCA50"/>
<path opacity="0.5" d="M136.382 320.606C178.754 320.606 213.103 300.769 213.103 276.299C213.103 251.829 178.754 231.992 136.382 231.992C94.0099 231.992 59.6606 251.829 59.6606 276.299C59.6606 300.769 94.0099 320.606 136.382 320.606Z" fill="white"/>
<path opacity="0.1" d="M82.0513 244.942C70.3621 251.716 63.2415 260.096 60.6896 268.846C62.7475 276.422 68.798 283.69 78.8821 289.434C104.216 304.073 145.272 304.073 170.606 289.434C195.94 274.796 195.919 251.346 171.017 236.707C142.309 228.327 106.212 231.045 82.0513 244.942Z" fill="black"/>
<path d="M237.078 363.286C234.101 361.345 230.551 360.48 227.015 360.836C222.889 361.226 218.999 362.937 215.922 365.715C215.573 366.024 215.243 366.354 214.935 366.703C210.899 367.759 207.326 370.119 204.768 373.415C203.413 375.142 202.469 377.156 202.011 379.304C200.687 380.899 199.832 382.83 199.541 384.883C199.216 388.114 200.153 391.345 202.155 393.901C203.788 396.031 205.851 397.795 208.208 399.079C210.565 400.362 213.165 401.137 215.84 401.354C216.89 400.324 217.898 399.295 218.824 398.245C214.9 398.508 211.008 397.378 207.835 395.054C206.188 394.002 204.831 392.554 203.889 390.842C202.947 389.13 202.45 387.208 202.443 385.254V385.459C203.197 387.268 204.318 388.901 205.735 390.255C207.152 391.608 208.834 392.653 210.675 393.324C212.419 394.097 214.343 394.369 216.233 394.111C218.122 393.853 219.903 393.074 221.376 391.863C222.248 391.065 222.948 390.098 223.434 389.021C224.078 389.062 224.724 389.062 225.369 389.021C227.132 389.133 228.892 388.761 230.459 387.944C232.026 387.128 233.34 385.898 234.259 384.389C235.012 382.862 235.427 381.19 235.473 379.487C235.519 377.785 235.196 376.093 234.527 374.527C233.516 372.002 231.7 369.882 229.361 368.495C228.59 368.016 227.777 367.61 226.933 367.28C224.548 366.348 222.001 365.901 219.442 365.962C221.859 364.199 224.699 363.105 227.674 362.791C229.262 362.609 230.869 362.644 232.448 362.894C233.929 363.128 235.366 363.586 236.708 364.253C237.572 364.686 237.634 363.615 237.078 363.286ZM206.6 375.433C208.129 373.246 210.181 371.477 212.568 370.286C211.985 371.5 211.569 372.789 211.333 374.115C209.602 374.416 207.929 374.985 206.374 375.803C206.439 375.654 206.515 375.51 206.6 375.371V375.433ZM213.618 391.06C212.09 390.763 210.636 390.164 209.343 389.298C208.049 388.431 206.942 387.316 206.085 386.015C204.993 384.327 204.52 382.311 204.748 380.312C206.466 378.524 208.694 377.309 211.127 376.833C211.135 378.425 211.468 379.998 212.105 381.456C212.742 382.915 213.67 384.228 214.832 385.315C216.454 386.732 218.363 387.778 220.429 388.383C219.702 389.468 218.657 390.301 217.437 390.769C216.218 391.237 214.884 391.317 213.618 390.998V391.06ZM217.734 383.915C216.642 383.049 215.755 381.952 215.136 380.703C214.517 379.453 214.181 378.083 214.153 376.689C215.166 376.763 216.151 377.051 217.045 377.534C217.939 378.017 218.72 378.683 219.339 379.489C220.739 381.236 221.469 383.427 221.397 385.665C220.056 385.284 218.79 384.678 217.651 383.874L217.734 383.915ZM224.587 369.318C226.605 369.865 228.439 370.946 229.896 372.448C230.533 373.085 231.062 373.822 231.46 374.63C232.686 376.929 232.995 379.607 232.325 382.124C231.94 383.271 231.221 384.276 230.26 385.01C229.299 385.744 228.14 386.173 226.933 386.242C226.071 386.345 225.201 386.345 224.34 386.242C224.549 384.645 224.408 383.023 223.928 381.486C223.435 379.73 222.498 378.132 221.208 376.844C219.917 375.557 218.317 374.624 216.56 374.136C215.836 373.978 215.099 373.881 214.358 373.848C214.716 372.035 215.475 370.325 216.581 368.845C219.216 368.334 221.936 368.475 224.504 369.256L224.587 369.318Z" fill="#EBCA50"/>
<path opacity="0.5" d="M237.078 363.286C234.101 361.345 230.551 360.48 227.015 360.836C222.889 361.226 218.999 362.937 215.922 365.715C215.573 366.024 215.243 366.354 214.935 366.703C210.899 367.759 207.326 370.119 204.768 373.415C203.413 375.142 202.469 377.156 202.011 379.304C200.687 380.899 199.832 382.83 199.541 384.883C199.216 388.114 200.153 391.345 202.155 393.901C203.788 396.031 205.851 397.795 208.208 399.079C210.565 400.362 213.165 401.137 215.84 401.354C216.89 400.324 217.898 399.295 218.824 398.245C214.9 398.508 211.008 397.378 207.835 395.054C206.188 394.002 204.831 392.554 203.889 390.842C202.947 389.13 202.45 387.208 202.443 385.254V385.459C203.197 387.268 204.318 388.901 205.735 390.255C207.152 391.608 208.834 392.653 210.675 393.324C212.419 394.097 214.343 394.369 216.233 394.111C218.122 393.853 219.903 393.074 221.376 391.863C222.248 391.065 222.948 390.098 223.434 389.021C224.078 389.062 224.724 389.062 225.369 389.021C227.132 389.133 228.892 388.761 230.459 387.944C232.026 387.128 233.34 385.898 234.259 384.389C235.012 382.862 235.427 381.19 235.473 379.487C235.519 377.785 235.196 376.093 234.527 374.527C233.516 372.002 231.7 369.882 229.361 368.495C228.59 368.016 227.777 367.61 226.933 367.28C224.548 366.348 222.001 365.901 219.442 365.962C221.859 364.199 224.699 363.105 227.674 362.791C229.262 362.609 230.869 362.644 232.448 362.894C233.929 363.128 235.366 363.586 236.708 364.253C237.572 364.686 237.634 363.615 237.078 363.286ZM206.6 375.433C208.129 373.246 210.181 371.477 212.568 370.286C211.985 371.5 211.569 372.789 211.333 374.115C209.602 374.416 207.929 374.985 206.374 375.803C206.439 375.654 206.515 375.51 206.6 375.371V375.433ZM213.618 391.06C212.09 390.763 210.636 390.164 209.343 389.298C208.049 388.431 206.942 387.316 206.085 386.015C204.993 384.327 204.52 382.311 204.748 380.312C206.466 378.524 208.694 377.309 211.127 376.833C211.135 378.425 211.468 379.998 212.105 381.456C212.742 382.915 213.67 384.228 214.832 385.315C216.454 386.732 218.363 387.778 220.429 388.383C219.702 389.468 218.657 390.301 217.437 390.769C216.218 391.237 214.884 391.317 213.618 390.998V391.06ZM217.734 383.915C216.642 383.049 215.755 381.952 215.136 380.703C214.517 379.453 214.181 378.083 214.153 376.689C215.166 376.763 216.151 377.051 217.045 377.534C217.939 378.017 218.72 378.683 219.339 379.489C220.739 381.236 221.469 383.427 221.397 385.665C220.056 385.284 218.79 384.678 217.651 383.874L217.734 383.915ZM224.587 369.318C226.605 369.865 228.439 370.946 229.896 372.448C230.533 373.085 231.062 373.822 231.46 374.63C232.686 376.929 232.995 379.607 232.325 382.124C231.94 383.271 231.221 384.276 230.26 385.01C229.299 385.744 228.14 386.173 226.933 386.242C226.071 386.345 225.201 386.345 224.34 386.242C224.549 384.645 224.408 383.023 223.928 381.486C223.435 379.73 222.498 378.132 221.208 376.844C219.917 375.557 218.317 374.624 216.56 374.136C215.836 373.978 215.099 373.881 214.358 373.848C214.716 372.035 215.475 370.325 216.581 368.845C219.216 368.334 221.936 368.475 224.504 369.256L224.587 369.318Z" fill="white"/>
<path opacity="0.15" d="M199.603 384.554C200.261 386.278 201.441 387.754 202.978 388.774C202.555 387.63 202.373 386.41 202.443 385.192V385.398C201.873 383.392 201.705 381.292 201.949 379.221C200.711 380.761 199.902 382.6 199.603 384.554Z" fill="black"/>
<path opacity="0.15" d="M205.53 379.509C205.606 378.22 205.876 376.95 206.332 375.742C205.419 377.083 204.859 378.634 204.707 380.251C204.966 379.988 205.241 379.74 205.53 379.509Z" fill="black"/>
<path opacity="0.15" d="M210.037 371.83C210.825 371.211 211.673 370.673 212.568 370.224C213.165 368.914 213.964 367.705 214.935 366.642C214.236 366.835 213.549 367.069 212.877 367.342C211.548 368.559 210.568 370.108 210.037 371.83Z" fill="black"/>
<path opacity="0.15" d="M211.333 374.053C210.945 374.116 210.56 374.199 210.181 374.301C209.948 375.241 209.79 376.197 209.707 377.162C210.181 377.018 210.654 376.874 211.127 376.771C211.058 375.86 211.127 374.944 211.333 374.053Z" fill="black"/>
<path opacity="0.15" d="M223.475 388.96C222.45 388.799 221.433 388.586 220.429 388.321C220.105 388.84 219.702 389.305 219.236 389.701C220.129 390.299 221.139 390.699 222.199 390.874C222.697 390.287 223.125 389.645 223.475 388.96Z" fill="black"/>
<path opacity="0.15" d="M219.483 366.003C218.406 366.875 217.407 367.839 216.499 368.886C216.869 368.886 217.24 368.783 217.589 368.721C218.144 367.764 218.778 366.855 219.483 366.003Z" fill="black"/>
<path opacity="0.15" d="M214.07 376.627L214.688 376.751C214.542 375.816 214.542 374.864 214.688 373.93H214.276C214.116 374.82 214.047 375.723 214.07 376.627Z" fill="black"/>
<path opacity="0.15" d="M224.36 385.13C223.325 385.305 222.267 385.305 221.232 385.13C221.242 385.315 221.242 385.501 221.232 385.686C222.205 386.007 223.214 386.208 224.237 386.283C224.299 385.901 224.34 385.516 224.36 385.13Z" fill="black"/>
<path d="M95.7781 354.309C95.7781 360.074 93.8436 364.191 90.6949 366.271C89.896 366.699 89.0712 367.078 88.2253 367.403C84.1682 368.989 79.7855 369.559 75.458 369.065C71.1304 368.571 66.9889 367.028 63.3931 364.569C59.7973 362.109 56.8561 358.809 54.8248 354.955C52.7936 351.1 51.7338 346.807 51.7375 342.45C51.731 338.331 52.6792 334.267 54.5074 330.577C56.3357 326.887 58.9942 323.671 62.2743 321.182C62.2918 321.137 62.3195 321.097 62.3552 321.065C62.391 321.033 62.4337 321.009 62.4801 320.997C62.8094 320.77 63.0975 320.544 63.4267 320.338C66.8224 318.279 71.5351 318.65 76.7624 321.655C87.3198 327.606 95.7781 342.244 95.7781 354.309Z" fill="#EBCA50"/>
<path opacity="0.25" d="M95.7781 354.309C95.7781 360.074 93.8436 364.191 90.6949 366.271C89.896 366.699 89.0712 367.078 88.2253 367.403C84.1682 368.989 79.7855 369.559 75.458 369.065C71.1304 368.571 66.9889 367.028 63.3931 364.569C59.7973 362.109 56.8561 358.809 54.8248 354.955C52.7936 351.1 51.7338 346.807 51.7375 342.45C51.731 338.331 52.6792 334.267 54.5074 330.577C56.3357 326.887 58.9942 323.671 62.2743 321.182C62.2918 321.137 62.3195 321.097 62.3552 321.065C62.391 321.033 62.4337 321.009 62.4801 320.997C62.8094 320.77 63.0975 320.544 63.4267 320.338C66.8224 318.279 71.5351 318.65 76.7624 321.655C87.3198 327.606 95.7781 342.244 95.7781 354.309Z" fill="black"/>
<path opacity="0.1" d="M95.7781 354.309C95.7781 345.003 90.736 334.173 83.636 326.926C88.925 333.556 93.9259 350.459 87.4639 359.086C81.0018 367.712 57.1705 362.812 52.4783 348.647C53.3619 352.371 55.0334 355.862 57.3802 358.885C59.7271 361.907 62.6946 364.391 66.0826 366.169C69.4706 367.946 73.2003 368.977 77.0201 369.189C80.8398 369.402 84.6608 368.793 88.2253 367.403C89.0637 367.084 89.8816 366.712 90.6743 366.292C93.8436 364.191 95.7781 360.074 95.7781 354.309Z" fill="black"/>
<path d="M64.5175 518.503C63.5574 522.409 63.4661 526.478 64.2499 530.424C64.5792 532.071 66.3079 533.43 67.0694 532.627L83.3273 515.95L96.3749 519.182L100.1 532.133L83.0804 549.612C82.4424 550.271 82.5247 550.951 83.1833 551.136L84.3975 551.465C90.4211 552.952 96.772 552.333 102.395 549.711C108.019 547.089 112.577 542.621 115.312 537.05C118.047 531.478 118.795 525.139 117.432 519.084C116.068 513.028 112.676 507.622 107.817 503.762L129.2 414.592C136.258 413.162 142.462 408.992 146.454 402.995C150.446 396.999 151.9 389.665 150.5 382.598C150.15 380.93 148.442 379.571 147.66 380.374L131.402 397.051L118.354 393.818L114.629 380.868L131.649 363.368C132.266 362.75 132.184 362.03 131.649 361.844L130.434 361.515C124.406 360.018 118.046 360.631 112.414 363.253C106.782 365.875 102.218 370.347 99.4803 375.925C96.7428 381.504 95.9974 387.852 97.3682 393.913C98.739 399.974 102.143 405.383 107.015 409.239L85.6323 498.408C80.5683 499.405 75.8929 501.825 72.1535 505.383C68.4141 508.942 65.7654 513.493 64.5175 518.503Z" fill="#EBCA50"/>
<path opacity="0.8" d="M64.5175 518.503C63.5574 522.409 63.4661 526.478 64.2499 530.424C64.5792 532.071 66.3079 533.43 67.0694 532.627L83.3273 515.95L96.3749 519.182L100.1 532.133L83.0804 549.612C82.4424 550.271 82.5247 550.951 83.1833 551.136L84.3975 551.465C90.4211 552.952 96.772 552.333 102.395 549.711C108.019 547.089 112.577 542.621 115.312 537.05C118.047 531.478 118.795 525.139 117.432 519.084C116.068 513.028 112.676 507.622 107.817 503.762L129.2 414.592C136.258 413.162 142.462 408.992 146.454 402.995C150.446 396.999 151.9 389.665 150.5 382.598C150.15 380.93 148.442 379.571 147.66 380.374L131.402 397.051L118.354 393.818L114.629 380.868L131.649 363.368C132.266 362.75 132.184 362.03 131.649 361.844L130.434 361.515C124.406 360.018 118.046 360.631 112.414 363.253C106.782 365.875 102.218 370.347 99.4803 375.925C96.7428 381.504 95.9974 387.852 97.3682 393.913C98.739 399.974 102.143 405.383 107.015 409.239L85.6323 498.408C80.5683 499.405 75.8929 501.825 72.1535 505.383C68.4141 508.942 65.7654 513.493 64.5175 518.503Z" fill="white"/>
<path d="M119.342 451.055C117.456 452.45 115.234 453.32 112.902 453.577C110.57 453.834 108.212 453.468 106.068 452.516C102.675 451.312 99.8558 448.881 98.1653 445.702L86.9699 492.397C90.4086 494.474 94.2758 495.74 98.2772 496.097C102.279 496.454 106.309 495.892 110.06 494.455L120.227 452.022C119.939 451.693 119.65 451.364 119.342 451.055Z" fill="#EBCA50"/>
<path opacity="0.05" d="M119.342 451.055C117.456 452.45 115.234 453.32 112.902 453.577C110.57 453.834 108.212 453.468 106.068 452.516C102.675 451.312 99.8558 448.881 98.1653 445.702L86.9699 492.397C90.4086 494.474 94.2758 495.74 98.2772 496.097C102.279 496.454 106.309 495.892 110.06 494.455L120.227 452.022C119.939 451.693 119.65 451.364 119.342 451.055Z" fill="black"/>
<path d="M78.4705 458.178C61.1012 459.414 35.9939 450.087 24.5928 439.134C18.5629 433.307 17.2458 425.154 20.4768 413.419C26.7537 390.771 53.8983 359.456 66.7812 353.383C67.4248 352.988 67.9427 352.419 68.2744 351.74C68.6061 351.062 68.7377 350.303 68.654 349.553C68.5457 347.526 67.9597 345.554 66.9439 343.797C65.9282 342.04 64.5114 340.549 62.8093 339.444C62.2357 339.03 61.5651 338.771 60.8622 338.691C60.1592 338.612 59.4477 338.715 58.7963 338.991C40.8508 347.453 10.825 383.195 3.49857 409.589C-1.41998 427.296 1.44059 441.44 12.0391 451.611C25.7247 464.767 53.569 474.855 75.0954 474.855C76.6389 474.855 78.1824 474.855 79.6641 474.69L78.4705 458.178Z" fill="#ECCF63"/>
<path d="M39.5748 353.691C44.8638 352.641 52.4989 358.53 52.4577 364.624" stroke="#D6C14E" stroke-width="1.2" stroke-linecap="round" stroke-linejoin="round"/>
<path d="M27.3299 367.403C32.516 366.147 40.3569 370.903 42.209 376.009" stroke="#D6C14E" stroke-width="1.2" stroke-linecap="round" stroke-linejoin="round"/>
<path d="M15.9081 383.298C18.9569 382.856 22.067 383.403 24.782 384.859C27.497 386.315 29.6739 388.604 30.9931 391.389" stroke="#D6C14E" stroke-width="1.2" stroke-linecap="round" stroke-linejoin="round"/>
<path d="M22.8641 406.728C21.3412 402.61 9.09624 399.892 4.95972 404.998" stroke="#D6C14E" stroke-width="1.2" stroke-linecap="round" stroke-linejoin="round"/>
<path d="M18.7893 423.548C16.9783 419.431 3.53973 420.645 1.2348 427.254" stroke="#D6C14E" stroke-width="1.2" stroke-linecap="round" stroke-linejoin="round"/>
<path d="M23.4403 437.919C21.547 435.346 8.47889 438.825 7.77917 446.669" stroke="#D6C14E" stroke-width="1.2" stroke-linecap="round" stroke-linejoin="round"/>
<path d="M36.2409 447.369C31.0137 445.619 21.4029 453.67 25.1896 461.04" stroke="#D6C14E" stroke-width="1.2" stroke-linecap="round" stroke-linejoin="round"/>
<path d="M49.1238 453.196C44.7197 453.402 39.1426 462.173 41.8592 468.596" stroke="#D6C14E" stroke-width="1.2" stroke-linecap="round" stroke-linejoin="round"/>
<path d="M63.7148 457.149C59.2078 458.734 56.2444 467.608 58.8992 473.187" stroke="#D6C14E" stroke-width="1.2" stroke-linecap="round" stroke-linejoin="round"/>
<path opacity="0.15" d="M6.23567 413.872C12.0803 387.56 33.8742 365.344 45.2137 354.7C52.4989 347.906 60.7102 343.562 66.2873 342.718C65.386 341.383 64.2065 340.259 62.8299 339.423C62.2563 339.009 61.5857 338.75 60.8827 338.671C60.1798 338.591 59.4683 338.695 58.8169 338.971C40.8713 347.432 10.8455 383.174 3.51913 409.569C-1.39942 427.275 1.46118 441.419 12.0597 451.59C12.0803 451.57 0.411609 440.205 6.23567 413.872Z" fill="black"/>
<path opacity="0.15" d="M78.4705 458.178C61.1012 459.414 35.994 450.087 24.5928 439.134C21.7083 436.381 19.7885 432.771 19.1186 428.84H18.7893C20.127 437.24 21.1972 447.163 45.2137 456.778C55.8588 461.073 67.3185 462.971 78.7792 462.337L78.4705 458.178Z" fill="black"/>
<path d="M89.4601 443.89C88.7398 436.457 89.7276 427.975 92.938 422.787C96.1485 417.598 101.355 414.036 103.804 418.298C105.451 421.139 101.973 425.484 100.347 430.816C99.5534 434.037 99.4343 437.388 99.9969 440.657L89.4601 443.89Z" fill="#ECCF63"/>
<path opacity="0.15" d="M100.347 430.816C101.973 425.484 105.451 421.14 103.804 418.298C103.592 417.889 103.301 417.525 102.948 417.228C102.595 416.931 102.186 416.707 101.746 416.569C103.146 418.484 99.8528 422.066 97.5273 426.657C95.4581 431.502 94.7467 436.819 95.4694 442.037L99.9969 440.657C99.4343 437.388 99.5534 434.037 100.347 430.816Z" fill="black"/>
<path d="M128.562 471.129C127.492 475.863 125.14 480.211 121.765 483.698C118.39 487.185 114.121 489.676 109.426 490.898C104.731 492.12 99.7896 492.026 95.1439 490.627C90.4982 489.228 86.3268 486.577 83.0863 482.964C79.8458 479.352 77.6611 474.917 76.7713 470.146C75.8816 465.374 76.321 460.45 78.0416 455.912C79.7621 451.373 82.6974 447.396 86.5263 444.415C90.3552 441.434 94.93 439.564 99.75 439.01C100.018 442.449 103.866 446.587 108.208 448.152C110.354 449.1 112.713 449.463 115.045 449.202C117.377 448.942 119.598 448.068 121.482 446.669C124.625 449.82 126.922 453.714 128.16 457.99C129.397 462.266 129.535 466.785 128.562 471.129Z" fill="#EBCA50"/>
<path d="M128.562 471.129C127.492 475.863 125.14 480.211 121.765 483.698C118.39 487.185 114.121 489.676 109.426 490.898C104.731 492.12 99.7896 492.026 95.1439 490.627C90.4982 489.228 86.3268 486.577 83.0863 482.964C79.8458 479.352 77.6611 474.917 76.7713 470.146C75.8816 465.374 76.321 460.45 78.0416 455.912C79.7621 451.373 82.6974 447.396 86.5263 444.415C90.3552 441.434 94.93 439.564 99.75 439.01C100.018 442.449 103.866 446.587 108.208 448.152C110.354 449.1 112.713 449.463 115.045 449.202C117.377 448.942 119.598 448.068 121.482 446.669C124.625 449.82 126.922 453.714 128.16 457.99C129.397 462.266 129.535 466.785 128.562 471.129Z" fill="#EBCA50"/>
<path opacity="0.1" d="M128.562 471.129C128.764 470.246 128.915 469.352 129.014 468.452C125.372 475.802 116.543 486.035 99.0296 483.029C81.043 479.94 77.318 458.322 79.6641 452.496C78.4213 454.703 77.5127 457.083 76.9682 459.558C76.112 462.981 75.9491 466.542 76.4892 470.029C77.0292 473.517 78.2613 476.861 80.1128 479.865C81.9643 482.869 84.3979 485.472 87.2702 487.521C90.1425 489.569 93.3955 491.023 96.8377 491.795C100.28 492.567 103.842 492.642 107.313 492.016C110.785 491.39 114.096 490.075 117.053 488.149C120.009 486.224 122.55 483.726 124.526 480.803C126.503 477.879 127.875 474.59 128.562 471.129Z" fill="black"/>
<path d="M128.706 460.052C137.719 456.408 140.683 448.152 139.284 439.793C137.884 431.434 125.927 428.16 125.927 428.16L123.622 437.796C123.622 437.796 129.508 439.999 129.22 444.116C128.981 445.429 128.442 446.67 127.646 447.741C126.85 448.812 125.819 449.685 124.631 450.293C124.222 451.197 124.003 452.175 123.988 453.167C123.974 454.159 124.163 455.144 124.546 456.059C124.928 456.975 125.495 457.802 126.21 458.489C126.926 459.176 127.775 459.708 128.706 460.052Z" fill="#ECCF63"/>
<path opacity="0.15" d="M125.927 428.243L123.622 437.878C123.622 437.878 129.508 440.081 129.22 444.199C128.981 445.512 128.442 446.752 127.646 447.823C126.85 448.894 125.819 449.768 124.631 450.375C124.03 451.764 123.881 453.308 124.206 454.786C124.532 456.264 125.314 457.602 126.442 458.611C125.495 455.378 127.553 453.814 130.764 450.375C133.974 446.937 132.698 441.131 130.64 437.487C129.445 435.075 129.224 432.296 130.023 429.725C128.702 429.115 127.332 428.62 125.927 428.243Z" fill="black"/>
<path d="M127.512 474.649C134.53 476.708 143.008 473.846 144.14 468.123C145.272 462.399 143.379 457.664 136.752 453.711C134.767 456.585 131.963 458.794 128.706 460.052L129.138 463.14C127.694 464.646 126.761 466.567 126.469 468.632C126.177 470.698 126.542 472.803 127.512 474.649Z" fill="#ECCF63"/>
<path opacity="0.15" d="M136.752 453.875C134.767 456.749 131.963 458.959 128.706 460.217L129.138 463.305H137.719C137.719 463.305 135.497 462.584 136.135 461.123C136.773 459.661 140.374 460.217 142.124 462.481C143.101 463.735 143.668 465.259 143.749 466.847C143.83 468.434 143.421 470.008 142.576 471.355C143.361 470.458 143.9 469.373 144.14 468.205C145.293 462.399 143.379 457.664 136.752 453.875Z" fill="black"/>
<path d="M117.984 486.982C120.736 489.418 123.928 491.305 127.388 492.541C130.084 493.55 134.797 493.611 137.329 490.914C139.86 488.217 138.111 485.232 136.217 483.893C132.975 481.654 129.53 479.724 125.927 478.129C125.927 478.129 118.601 478.129 117.984 486.982Z" fill="#ECCF63"/>
<path opacity="0.15" d="M136.217 483.893C132.975 481.654 129.53 479.724 125.927 478.129C124.751 478.193 123.602 478.51 122.558 479.057C121.514 479.604 120.6 480.368 119.877 481.299C121.42 479.755 126.586 482.617 130.805 485.17C135.024 487.723 138.337 489.164 136.608 491.511C136.862 491.33 137.103 491.13 137.328 490.914C140.024 487.991 138.111 485.232 136.217 483.893Z" fill="black"/>
<path d="M330.016 274.755C331.32 274.166 332.355 273.11 332.919 271.795C333.482 270.48 333.534 269.002 333.062 267.652C331.354 262.69 325.365 261.228 325.365 261.228C325.365 261.228 314.273 258.16 305.815 263.287C297.356 268.413 297.233 279.14 297.48 282.578C297.61 283.663 298.103 284.672 298.879 285.44C299.655 286.209 300.668 286.692 301.753 286.811C302.839 286.93 303.932 286.679 304.857 286.097C305.781 285.516 306.481 284.638 306.844 283.608C308.799 279.387 308.778 273.54 315.837 271.481C321.661 269.752 326.559 276.278 330.016 274.755Z" fill="#ECCF63"/>
<path opacity="0.15" d="M326.621 270.266C320.735 267.858 314.438 264.707 309.437 270.266C304.436 275.825 305.465 281.261 303.386 283.546C301.308 285.831 298.818 285.44 297.706 283.546C298.036 284.496 298.653 285.319 299.472 285.902C300.29 286.484 301.27 286.797 302.275 286.797C303.28 286.797 304.26 286.484 305.078 285.902C305.897 285.319 306.514 284.496 306.844 283.546C308.799 279.325 308.778 273.478 315.837 271.419C321.661 269.731 326.559 276.258 330.016 274.734C331.32 274.145 332.355 273.089 332.919 271.775C333.482 270.46 333.534 268.982 333.062 267.631C333.124 270.143 331.231 272.14 326.621 270.266Z" fill="black"/>
<path d="M341.479 298.802C342.19 298.142 343.1 297.739 344.066 297.657C345.032 297.575 345.998 297.819 346.809 298.349C347.755 298.759 348.573 299.417 349.174 300.255C349.776 301.092 350.139 302.077 350.226 303.105C350.226 303.105 350.534 310.394 342.632 317.867C340.146 320.112 337.202 321.789 334.003 322.781C330.805 323.773 327.429 324.056 324.11 323.611C318.924 322.211 318.039 316.364 324.11 315.047C328.658 314.058 332.671 314.161 337.549 308.685C340.533 305.308 340.533 300.84 341.479 298.802Z" fill="#ECCF63"/>
<path opacity="0.15" d="M339.524 315.438C331.519 321.614 326.6 320.894 323.616 320.153C320.632 319.411 320.673 316.529 321.929 315.891C318.43 317.95 319.685 322.417 324.131 323.611C327.45 324.056 330.826 323.773 334.024 322.781C337.223 321.789 340.167 320.112 342.652 317.867C350.555 310.394 350.246 303.105 350.246 303.105C350.16 302.078 349.797 301.092 349.195 300.255C348.593 299.417 347.776 298.759 346.83 298.349C348.312 300.305 348.106 308.952 339.524 315.438Z" fill="black"/>
<path d="M333.7 278.049C335.206 277.983 336.701 278.333 338.022 279.059C339.343 279.785 340.439 280.86 341.191 282.167C345.143 288.158 340.492 290.67 340.492 290.67C337.425 291.04 333.556 289.105 327.279 291.596C319.48 294.684 318.615 300.614 316.784 305.288C314.726 310.476 306.803 307.655 308.099 299.564C309.396 291.473 312.729 286.243 318.018 282.825C322.698 279.802 328.13 278.148 333.7 278.049Z" fill="#ECCF63"/>
<path opacity="0.15" d="M336.273 285.955C330.778 285.667 322.608 286.511 318.903 292.42C316.413 296.414 315.796 301.993 313.614 303.64C313.142 304.035 312.573 304.297 311.966 304.398C311.358 304.499 310.735 304.436 310.161 304.216C309.586 303.996 309.08 303.626 308.696 303.144C308.312 302.663 308.063 302.088 307.976 301.479C308.099 308.088 314.932 310.064 316.784 305.308C318.636 300.552 319.48 294.705 327.279 291.617C333.453 289.126 337.425 291.061 340.492 290.69C340.492 290.69 344.731 288.384 341.644 282.928C342.508 285.049 341.747 286.264 336.273 285.955Z" fill="black"/>
<path d="M196.166 465.199C195.104 463.972 193.81 462.965 192.36 462.238C190.909 461.511 189.329 461.076 187.71 460.96C186.092 460.843 184.466 461.046 182.926 461.558C181.386 462.07 179.962 462.881 178.735 463.943C177.508 465.006 176.502 466.3 175.775 467.751C175.048 469.203 174.614 470.783 174.497 472.402C174.381 474.022 174.584 475.648 175.096 477.189C175.607 478.73 176.417 480.154 177.48 481.382L256.382 572.733L275.11 556.551L196.166 465.199Z" fill="#ECCF63"/>
<path d="M208.287 479.241C207.227 478.013 205.935 477.007 204.485 476.279C203.035 475.551 201.457 475.116 199.839 474.998C198.221 474.88 196.597 475.083 195.057 475.593C193.518 476.104 192.094 476.913 190.867 477.974C189.64 479.036 188.634 480.328 187.906 481.778C187.178 483.228 186.743 484.808 186.626 486.426C186.508 488.045 186.711 489.67 187.221 491.21C187.732 492.751 188.54 494.175 189.601 495.403" stroke="#D6C14E" stroke-width="1.2" stroke-linecap="round" stroke-linejoin="round"/>
<path d="M221.685 494.744C219.54 492.265 216.498 490.74 213.229 490.504C209.96 490.269 206.732 491.342 204.254 493.488C201.776 495.634 200.251 498.677 200.016 501.947C199.781 505.217 200.853 508.447 202.998 510.926" stroke="#D6C14E" stroke-width="1.2" stroke-linecap="round" stroke-linejoin="round"/>
<path d="M235.082 510.268C234.021 509.04 232.729 508.034 231.28 507.306C229.83 506.578 228.252 506.142 226.634 506.025C225.016 505.907 223.391 506.11 221.852 506.62C220.312 507.131 218.888 507.94 217.661 509.001C216.434 510.063 215.428 511.355 214.701 512.805C213.973 514.255 213.538 515.835 213.421 517.453C213.303 519.072 213.505 520.697 214.016 522.237C214.526 523.778 215.335 525.202 216.396 526.43" stroke="#D6C14E" stroke-width="1.2" stroke-linecap="round" stroke-linejoin="round"/>
<path d="M248.5 525.771C246.355 523.289 243.312 521.761 240.042 521.524C236.771 521.286 233.54 522.359 231.059 524.505C228.578 526.651 227.051 529.694 226.814 532.967C226.576 536.239 227.648 539.472 229.793 541.953" stroke="#D6C14E" stroke-width="1.2" stroke-linecap="round" stroke-linejoin="round"/>
<path d="M243.191 557.457C242.13 556.228 241.321 554.802 240.811 553.261C240.302 551.719 240.1 550.092 240.219 548.473C240.337 546.854 240.773 545.274 241.502 543.823C242.231 542.372 243.238 541.079 244.467 540.018C245.695 538.957 247.12 538.148 248.661 537.638C250.202 537.128 251.828 536.926 253.446 537.045C255.065 537.163 256.644 537.6 258.094 538.329C259.545 539.058 260.837 540.066 261.898 541.295" stroke="#D6C14E" stroke-width="1.2" stroke-linecap="round" stroke-linejoin="round"/>
<path opacity="0.15" d="M186.802 460.917C184.43 460.911 182.106 461.589 180.109 462.869C178.112 464.15 176.525 465.979 175.54 468.138C174.554 470.296 174.211 472.694 174.551 475.042C174.892 477.391 175.901 479.592 177.459 481.382L256.362 572.733L264.141 566.001C240.042 539.009 200.94 495.197 190.404 483.194C174.845 465.487 181.184 462.255 186.802 460.917Z" fill="black"/>
<path d="M401.593 568.986C401.593 568.986 378.502 548.83 360.001 562.007C348.742 570.084 338.753 579.799 330.366 590.831L280.522 546.751C277.456 544.095 272.105 544.033 266.816 547.08C257.555 552.433 250.064 565.424 250.064 576.11C249.939 579.095 250.745 582.045 252.369 584.551C252.369 584.551 307.173 661.203 316.496 673.082C325.818 684.962 337.652 691.2 353.539 683.953C369.427 676.706 374.119 655.953 376.033 641.932C377.947 627.911 395.892 608.249 400.728 595.669C405.77 581.916 404.556 573.619 401.593 568.986Z" fill="#EBCA50"/>
<path opacity="0.15" d="M383.585 563.448C374.757 564.189 353.58 575.142 347.386 598.449C345.137 607.375 342.248 616.127 338.742 624.637C335.892 631.047 331.951 636.912 327.094 641.973C319.788 649.735 311.042 644.444 303.469 638.164C295.895 631.884 274.492 603.74 267.269 591.613C261.98 582.842 260.313 576.192 261.753 569.81C262.247 570.469 262.762 571.107 263.276 571.683C270.397 579.589 284 586.095 294.372 578.169C299.435 574.319 299.847 568.245 298.18 562.233L280.605 546.689C277.538 544.033 272.187 543.971 266.898 547.018C266.343 547.348 265.808 547.698 265.273 548.048L264.717 548.46L263.709 549.221L263.05 549.777L262.186 550.539L261.486 551.198L260.745 551.939L260.025 552.701L259.366 553.463C259.119 553.73 258.872 554.018 258.646 554.307L258.07 555.048C257.823 555.357 257.576 555.686 257.349 556.015C257.123 556.345 257.041 556.448 256.897 556.654C252.796 562.318 250.449 569.062 250.146 576.048C250.022 579.033 250.827 581.983 252.451 584.49C252.451 584.49 307.255 661.141 316.578 673.02C325.9 684.9 337.734 691.138 353.621 683.891C369.509 676.644 374.201 655.891 376.115 641.87C377.514 631.576 387.681 618.09 394.822 606.705L383.585 563.448Z" fill="black"/>
<path d="M400.564 595.607C405.77 581.916 404.556 573.619 401.593 568.986C398.577 566.488 395.308 564.315 391.838 562.501C379.099 560.874 363.458 575.822 357.676 585.395C351.893 594.969 348.785 606.54 344.607 621.981C340.903 635.673 331.622 643.311 326.353 656.179C322.525 665.526 321.661 672.65 324.295 680.885C332.239 687.062 341.767 689.121 353.498 683.829C369.283 676.603 374.078 655.829 375.991 641.808C377.905 627.787 395.789 608.29 400.564 595.607Z" fill="#ECCF63"/>
<path d="M361.359 590.769C353.127 605.449 351.481 625.77 344.525 637.649C337.569 649.529 327.032 662.685 328.247 674.091C329.029 681.544 331.642 685.456 336.478 686.629C339.116 687.052 341.805 687.052 344.443 686.629L345.513 686.424C348.234 685.886 350.881 685.022 353.395 683.85C369.18 676.623 373.975 655.849 375.889 641.829C377.803 627.808 395.748 608.146 400.584 595.566C405.791 581.875 404.577 573.577 401.613 568.945C391.529 562.48 372.225 571.416 361.359 590.769Z" fill="#D6C14E"/>
<path opacity="0.15" d="M327.094 587.887C316.084 598.449 313.12 614.652 313.12 614.652C318.385 606.359 324.144 598.39 330.366 590.79L327.094 587.887Z" fill="black"/>
<path d="M348.641 628.199C348.332 629.084 348.024 629.929 347.715 630.773L382.145 626.387C382.639 625.523 383.153 624.637 383.688 623.752L348.641 628.199Z" fill="#948837"/>
<path d="M342.735 640.614C342.2 641.506 341.644 642.391 341.068 643.27L376.609 638.761C376.835 637.917 377.103 637.073 377.412 636.208L342.735 640.614Z" fill="#948837"/>
<path d="M329.44 679.732L363.993 675.326C364.693 674.462 365.331 673.556 366.051 672.629L328.823 677.365C328.987 678.164 329.193 678.955 329.44 679.732Z" fill="#948837"/>
<path d="M329.193 665.65C328.946 666.487 328.741 667.331 328.576 668.182L370.97 662.788C371.299 661.944 371.588 661.079 371.876 660.214L329.193 665.65Z" fill="#948837"/>
<path d="M334.894 653.276C334.379 654.141 333.885 655.026 333.412 655.911L374.427 650.682C374.613 649.838 374.777 649.014 374.921 648.17L334.894 653.276Z" fill="#948837"/>
<path d="M370.332 578.828C369.468 579.692 368.624 580.619 367.78 581.587L404.042 576.975C403.985 576.167 403.882 575.362 403.733 574.566L370.332 578.828Z" fill="#948837"/>
<path d="M360.886 591.675C360.413 592.54 359.981 593.404 359.548 594.29L402.766 588.793C402.992 587.928 403.198 587.084 403.363 586.281L360.886 591.675Z" fill="#948837"/>
<path d="M355.762 603.987C355.494 604.831 355.206 605.675 354.959 606.54L397.971 601.063C398.465 600.157 398.917 599.293 399.329 598.448L355.762 603.987Z" fill="#948837"/>
<path d="M352.222 616.093C351.975 616.937 351.749 617.802 351.522 618.625L390.089 613.725L391.838 611.049L352.222 616.093Z" fill="#948837"/>
<path d="M263.318 536.23C251.896 544.115 257.535 560.689 264.655 568.616C271.776 576.542 285.379 583.028 295.751 575.08C305.28 567.833 298.385 552.66 291.965 544.918C285.256 536.724 272.331 529.93 263.318 536.23Z" fill="#EBCA50"/>
<path opacity="0.7" d="M263.318 536.23C251.896 544.115 257.535 560.689 264.655 568.616C271.776 576.542 285.379 583.028 295.751 575.08C305.28 567.833 298.385 552.66 291.965 544.918C285.256 536.724 272.331 529.93 263.318 536.23Z" fill="white"/>
<path d="M300.423 565.054C299.62 570.674 291.018 577.963 276.509 566.742C262 555.521 261.671 538.721 266.446 534.603C265.342 535.002 264.292 535.535 263.318 536.189C251.896 544.074 257.535 560.648 264.655 568.574C271.776 576.501 285.358 582.986 295.751 575.039C297.275 573.873 298.495 572.356 299.308 570.618C300.121 568.88 300.503 566.971 300.423 565.054Z" fill="#EBCA50"/>
<path opacity="0.05" d="M300.423 565.054C299.62 570.674 291.018 577.963 276.509 566.742C262 555.521 261.671 538.721 266.446 534.603C265.342 535.002 264.292 535.535 263.318 536.189C251.896 544.074 257.535 560.648 264.655 568.574C271.776 576.501 285.358 582.986 295.751 575.039C297.275 573.873 298.495 572.356 299.308 570.618C300.121 568.88 300.503 566.971 300.423 565.054Z" fill="black"/>
<path d="M151.796 271.44V220.957H120.926V271.44C121.048 272.797 121.53 274.096 122.322 275.204C123.115 276.312 124.189 277.187 125.433 277.74C128.813 279.456 132.55 280.351 136.341 280.351C140.131 280.351 143.868 279.456 147.248 277.74C148.5 277.193 149.583 276.32 150.383 275.212C151.183 274.104 151.671 272.801 151.796 271.44Z" fill="#ECCF63"/>
<path d="M120.968 261.763C121.089 263.12 121.571 264.42 122.363 265.527C123.156 266.635 124.23 267.511 125.475 268.063C128.855 269.78 132.591 270.674 136.382 270.674C140.172 270.674 143.909 269.78 147.289 268.063C148.534 267.511 149.608 266.635 150.4 265.527C151.193 264.42 151.675 263.12 151.796 261.763" stroke="#D6C14E" stroke-width="1.02" stroke-linecap="round" stroke-linejoin="round"/>
<path d="M120.968 252.107C121.093 253.46 121.576 254.756 122.368 255.86C123.161 256.963 124.233 257.836 125.475 258.387C128.855 260.103 132.591 260.998 136.382 260.998C140.172 260.998 143.909 260.103 147.289 258.387C148.534 257.834 149.608 256.959 150.4 255.851C151.193 254.743 151.675 253.444 151.796 252.087" stroke="#D6C14E" stroke-width="1.02" stroke-linecap="round" stroke-linejoin="round"/>
<path d="M120.968 242.431C121.11 243.766 121.602 245.039 122.393 246.124C123.184 247.208 124.247 248.065 125.475 248.607C128.855 250.324 132.591 251.218 136.382 251.218C140.172 251.218 143.909 250.324 147.289 248.607C148.534 248.055 149.608 247.179 150.4 246.071C151.193 244.963 151.675 243.664 151.796 242.307" stroke="#D6C14E" stroke-width="1.02" stroke-linecap="round" stroke-linejoin="round"/>
<path opacity="0.15" d="M127.615 220.957H120.968V271.44C121.089 272.797 121.571 274.096 122.363 275.204C123.156 276.312 124.23 277.187 125.475 277.74C126.133 278.13 126.821 278.467 127.533 278.749V245.704C135.485 247.529 143.643 248.298 151.796 247.99V220.957H127.615Z" fill="black"/>
<path d="M72.5229 147.353C72.5229 109.119 103.393 84.4132 141.712 84.4132C180.031 84.4132 210.88 109.119 210.88 147.353V189.189C210.88 189.189 197.113 210.93 141.733 210.93C86.3525 210.93 72.5435 190.341 72.5435 190.341L72.5229 147.353Z" fill="#EBCA50"/>
<path opacity="0.2" d="M152.701 97.7958C151.83 98.1586 151.038 98.6913 150.374 99.3629C149.71 100.034 149.186 100.832 148.833 101.708C148.65 102.612 148.702 103.549 148.982 104.428C149.263 105.307 149.764 106.1 150.438 106.731C151.813 107.96 153.404 108.924 155.13 109.573C164.227 113.585 173.68 116.735 183.365 118.981C185.794 119.537 190.548 121.226 192.338 118.981C194.396 116.264 193.161 110.746 190.383 107.205C186.44 101.6 180.584 97.6309 173.919 96.0458C166.883 93.8977 159.291 94.5238 152.701 97.7958Z" fill="white"/>
<path opacity="0.2" d="M210.88 162.835C210.88 162.835 207.011 183.794 179.599 194.027C152.187 204.259 122.429 201.006 104.236 196.415C104.236 196.415 143.173 215.418 183.365 197.177C218.536 181.221 210.88 162.835 210.88 162.835Z" fill="black"/>
<path opacity="0.15" d="M165.626 87.8927C157.875 85.5643 149.825 84.3919 141.733 84.4133C103.516 84.4133 72.5435 109.12 72.5435 147.353V190.197C72.5435 190.197 78.2029 198.639 96.7453 204.733C93.8435 176.918 90.1186 141.423 101.19 119.702C113.826 94.8928 148.997 83.0544 165.626 87.8927Z" fill="black"/>
<path d="M139.675 175.765C136.946 175.765 134.328 174.68 132.399 172.75C130.469 170.819 129.385 168.201 129.385 165.47V160.715C129.385 157.984 130.469 155.366 132.399 153.435C134.328 151.505 136.946 150.42 139.675 150.42C142.404 150.42 145.021 151.505 146.951 153.435C148.88 155.366 149.964 157.984 149.964 160.715V165.47C149.964 168.201 148.88 170.819 146.951 172.75C145.021 174.68 142.404 175.765 139.675 175.765Z" fill="black"/>
<path d="M191.124 159.314C186.246 161.126 183.674 158.862 182.748 156.329C181.876 152.971 181.659 149.475 182.11 146.035C182.26 143.707 183.017 141.459 184.306 139.516C185.595 137.572 187.371 136.001 189.457 134.958C190.225 134.485 191.093 134.196 191.992 134.114C192.891 134.033 193.797 134.16 194.638 134.487C195.479 134.815 196.233 135.332 196.841 136C197.449 136.667 197.894 137.466 198.142 138.335C198.793 141.371 198.967 144.49 198.656 147.579C198.409 151.532 195.96 157.214 191.124 159.314Z" fill="black"/>
<path d="M218.042 160.159C216.135 158.186 213.605 156.935 210.88 156.617V162.794C210.88 173.088 204.13 183.259 190.63 191.062C167.149 204.609 130.949 206.38 104.195 196.374V194.315C103.956 189.917 102.684 185.638 100.481 181.824C98.2785 178.011 95.2076 174.771 91.5181 172.368C84.521 168.25 78.8615 171.585 78.8615 179.677C74.8675 174.985 72.6141 169.058 72.4818 162.897C70.1152 162.897 66.987 164.173 66.987 173.191C66.987 184.412 66.4314 197.012 77.0711 210.91C94.2552 233.372 139.448 253.178 178.344 237.675C219.812 221.204 220.038 190.053 220.038 177.412C220.08 168.003 220.82 163.35 218.042 160.159Z" fill="#EBCA50"/>
<path opacity="0.1" d="M218.042 160.159C216.135 158.186 213.605 156.935 210.88 156.617V162.794C210.88 173.088 204.13 183.259 190.63 191.062C167.149 204.609 130.949 206.38 104.195 196.374V194.315C103.956 189.917 102.684 185.638 100.481 181.824C98.2785 178.011 95.2076 174.771 91.5181 172.368C84.521 168.25 78.8615 171.585 78.8615 179.677C74.8675 174.985 72.6141 169.058 72.4818 162.897C70.1152 162.897 66.987 164.173 66.987 173.191C66.987 184.412 66.4314 197.012 77.0711 210.91C94.2552 233.372 139.448 253.178 178.344 237.675C219.812 221.204 220.038 190.053 220.038 177.412C220.08 168.003 220.82 163.35 218.042 160.159Z" fill="black"/>
<path opacity="0.15" d="M154.471 239.939C108.682 239.239 86.5583 215.439 80.8372 204.733C75.116 194.027 75.5688 183.053 78.9027 184.474V179.615C74.9086 174.923 72.6552 168.996 72.5229 162.835C70.1563 162.835 67.0282 164.112 67.0282 173.129C67.0282 184.35 66.4725 196.95 77.1122 210.848C94.2963 233.31 139.489 253.116 178.385 237.613C187.963 234.028 196.7 228.505 204.048 221.389C193.511 229.336 176.533 240.269 154.471 239.939Z" fill="black"/>
<path opacity="0.2" d="M93.5554 173.644C97.8977 177.021 101.17 184.186 101.17 198.206L104.236 196.415V194.356C104.02 190.345 102.956 186.425 101.115 182.855C99.2736 179.285 96.6973 176.146 93.5554 173.644Z" fill="black"/>
<path d="M210.88 162.835C210.88 173.129 204.13 183.3 190.63 191.103C167.149 204.651 130.949 206.421 104.195 196.415L101.129 198.206C101.129 198.206 138.584 218.795 180.855 202.077C220.306 186.533 219.462 165.512 218.001 160.159C216.094 158.186 213.564 156.935 210.839 156.617L210.88 162.835Z" fill="#EBCA50"/>
<path opacity="0.6" d="M210.88 162.835C210.88 173.129 204.13 183.3 190.63 191.103C167.149 204.651 130.949 206.421 104.195 196.415L101.129 198.206C101.129 198.206 138.584 218.795 180.855 202.077C220.306 186.533 219.462 165.512 218.001 160.159C216.094 158.186 213.564 156.935 210.839 156.617L210.88 162.835Z" fill="white"/>
<path d="M89.7482 179.265C91.2694 180.258 92.5353 181.596 93.4435 183.17C94.3516 184.744 94.8764 186.509 94.9754 188.324C94.9754 191.659 92.6294 193.018 89.7482 191.35C88.2247 190.36 86.9571 189.022 86.0486 187.448C85.1402 185.874 84.6167 184.107 84.5209 182.291C84.5209 178.956 86.8465 177.597 89.7482 179.265Z" fill="#D6C14E"/>
<path d="M89.7482 179.265C88.9786 178.785 88.082 178.548 87.1757 178.585C86.5943 179.384 86.3038 180.358 86.3525 181.344C86.4515 183.159 86.9764 184.925 87.8845 186.498C88.7927 188.072 90.0586 189.41 91.5798 190.403C92.3494 190.884 93.2459 191.12 94.1522 191.083C94.7336 190.284 95.0241 189.311 94.9754 188.324C94.8764 186.509 94.3516 184.744 93.4434 183.17C92.5353 181.596 91.2693 180.258 89.7482 179.265Z" fill="#ECCF63"/>
<path d="M78.9027 179.615C74.9086 174.923 72.6552 168.996 72.523 162.835C71.9485 162.817 71.3762 162.914 70.8392 163.119C70.3023 163.324 69.8113 163.633 69.3949 164.029C68.8345 165.709 68.6114 167.484 68.7386 169.25C68.8657 171.017 69.3405 172.741 70.1357 174.324C71.8767 178.566 74.9551 182.123 78.9027 184.453C78.7601 182.844 78.7601 181.224 78.9027 179.615Z" fill="#EBCA50"/>
<path opacity="0.5" d="M78.9027 179.615C74.9086 174.923 72.6552 168.996 72.523 162.835C71.9485 162.817 71.3762 162.914 70.8392 163.119C70.3023 163.324 69.8113 163.633 69.3949 164.029C68.8345 165.709 68.6114 167.484 68.7386 169.25C68.8657 171.017 69.3405 172.741 70.1357 174.324C71.8767 178.566 74.9551 182.123 78.9027 184.453C78.7601 182.844 78.7601 181.224 78.9027 179.615Z" fill="white"/>
<path d="M133.851 98.0841V61.0246H124.816V98.0841C124.857 98.4832 125.002 98.8646 125.237 99.1899C125.472 99.5151 125.788 99.7728 126.154 99.937C127.143 100.435 128.236 100.694 129.344 100.694C130.451 100.694 131.544 100.435 132.533 99.937C132.894 99.7683 133.205 99.509 133.436 99.1842C133.667 98.8595 133.81 98.4804 133.851 98.0841Z" fill="#ECCF63"/>
<path opacity="0.15" d="M124.816 67.2835C126.263 67.6887 127.758 67.8964 129.261 67.9012C130.814 67.893 132.358 67.6714 133.851 67.2423V60.9216H124.816V67.2835Z" fill="black"/>
<path d="M129.261 63.8452C138.513 63.8452 146.013 56.3419 146.013 47.0861C146.013 37.8303 138.513 30.327 129.261 30.327C120.009 30.327 112.509 37.8303 112.509 47.0861C112.509 56.3419 120.009 63.8452 129.261 63.8452Z" fill="#EBCA50"/>
<path opacity="0.15" d="M129.261 55.8569C117.181 53.798 113.024 42.989 118.354 34.3624C116.222 36.192 114.584 38.5285 113.591 41.1571C112.598 43.7856 112.282 46.6218 112.671 49.4047C113.06 52.1877 114.143 54.828 115.819 57.0829C117.495 59.3378 119.711 61.1349 122.263 62.3088C124.815 63.4828 127.621 63.9959 130.423 63.8011C133.225 63.6062 135.933 62.7096 138.298 61.1937C140.663 59.6779 142.609 57.5914 143.957 55.1261C145.306 52.6609 146.012 49.8962 146.013 47.0861C145.293 52.398 139.983 57.751 129.261 55.8569Z" fill="black"/>
<path opacity="0.3" d="M128.603 41.4448C131.243 42.1928 133.74 43.3757 135.991 44.9449C137.411 45.9126 139.675 47.3744 141.3 45.9126C142.926 44.4508 142.494 41.7949 141.877 40.1272C141.01 38.0283 139.496 36.2611 137.555 35.083C135.17 33.6336 132.335 33.1132 129.591 33.6212C127.862 33.93 125.022 34.8153 124.548 36.8124C124.075 38.8095 126.751 40.9095 128.603 41.4448Z" fill="white"/>
<path d="M129.385 18.5709C128.839 18.5709 128.315 18.354 127.93 17.9679C127.544 17.5818 127.327 17.0581 127.327 16.5121V2.10006C127.327 1.55401 127.544 1.03033 127.93 0.644223C128.315 0.258112 128.839 0.0411987 129.385 0.0411987C129.931 0.0411987 130.454 0.258112 130.84 0.644223C131.226 1.03033 131.443 1.55401 131.443 2.10006V16.5121C131.443 17.0581 131.226 17.5818 130.84 17.9679C130.454 18.354 129.931 18.5709 129.385 18.5709Z" fill="#FCF6E0"/>
<path d="M144.593 22.7092C144.233 22.7117 143.878 22.6194 143.564 22.4416C143.33 22.3053 143.125 22.1242 142.961 21.9086C142.797 21.693 142.677 21.4471 142.608 21.1851C142.54 20.9231 142.523 20.65 142.56 20.3816C142.597 20.1132 142.686 19.8547 142.823 19.6209L149.964 7.10307C150.093 6.85703 150.27 6.63957 150.485 6.46376C150.7 6.28796 150.948 6.15743 151.215 6.08006C151.481 6.0027 151.761 5.98007 152.036 6.01356C152.312 6.04704 152.578 6.13594 152.818 6.27491C153.058 6.41387 153.268 6.60002 153.434 6.82217C153.601 7.04432 153.721 7.29788 153.787 7.56758C153.853 7.83729 153.864 8.11756 153.819 8.39155C153.774 8.66555 153.674 8.92759 153.525 9.16193L146.301 21.6798C146.127 21.9821 145.879 22.2352 145.58 22.4153C145.281 22.5954 144.942 22.6965 144.593 22.7092Z" fill="#FCF6E0"/>
<path d="M155.747 33.8683C155.292 33.8715 154.848 33.7233 154.485 33.4469C154.123 33.1705 153.863 32.7817 153.745 32.3413C153.627 31.9009 153.659 31.4338 153.835 31.0134C154.011 30.593 154.322 30.2429 154.718 30.0182L167.251 22.7916C167.722 22.5455 168.269 22.4906 168.779 22.6386C169.289 22.7866 169.721 23.1258 169.987 23.5856C170.253 24.0453 170.331 24.59 170.204 25.1058C170.078 25.6215 169.757 26.0685 169.309 26.3534L156.776 33.6006C156.463 33.7785 156.108 33.8708 155.747 33.8683Z" fill="#FCF6E0"/>
<path d="M174.269 49.2273H159.863C159.317 49.2273 158.794 49.0104 158.408 48.6243C158.022 48.2382 157.805 47.7145 157.805 47.1685C157.805 46.6224 158.022 46.0988 158.408 45.7126C158.794 45.3265 159.317 45.1096 159.863 45.1096H174.269C174.815 45.1096 175.338 45.3265 175.724 45.7126C176.11 46.0988 176.327 46.6224 176.327 47.1685C176.327 47.7145 176.11 48.2382 175.724 48.6243C175.338 49.0104 174.815 49.2273 174.269 49.2273Z" fill="#FCF6E0"/>
<path d="M168.198 71.7307C167.836 71.7269 167.481 71.6275 167.169 71.4424L154.636 64.2158C154.39 64.0871 154.173 63.91 153.997 63.695C153.821 63.4801 153.691 63.2318 153.614 62.9651C153.536 62.6985 153.514 62.4189 153.547 62.1432C153.58 61.8676 153.669 61.6016 153.808 61.3612C153.947 61.1208 154.133 60.9109 154.355 60.7444C154.577 60.5778 154.831 60.4578 155.1 60.3918C155.37 60.3257 155.65 60.3149 155.924 60.3599C156.198 60.405 156.46 60.505 156.694 60.654L169.206 67.8806C169.442 68.0151 169.649 68.1949 169.815 68.4098C169.981 68.6246 170.103 68.8702 170.174 69.1324C170.245 69.3945 170.263 69.6681 170.228 69.9374C170.192 70.2066 170.104 70.4662 169.968 70.7012C169.788 71.0124 169.531 71.2712 169.22 71.4517C168.91 71.6323 168.557 71.7285 168.198 71.7307Z" fill="#FCF6E0"/>
<path d="M90.2832 71.5866C89.8276 71.5898 89.3837 71.4416 89.0213 71.1652C88.6589 70.8889 88.3984 70.5 88.2807 70.0596C88.163 69.6192 88.1947 69.1521 88.3709 68.7317C88.5471 68.3113 88.8578 67.9613 89.2542 67.7365L101.767 60.5099C102.242 60.2369 102.805 60.1638 103.334 60.3066C103.863 60.4495 104.313 60.7966 104.586 61.2717C104.859 61.7467 104.932 62.3108 104.789 62.8398C104.647 63.3688 104.3 63.8193 103.825 64.0923L91.3122 71.3189C90.9986 71.4968 90.6437 71.5891 90.2832 71.5866Z" fill="#FCF6E0"/>
<path d="M98.7003 49.0626H84.2945C83.7487 49.0626 83.2253 48.8457 82.8393 48.4596C82.4534 48.0735 82.2366 47.5498 82.2366 47.0037C82.2366 46.4577 82.4534 45.934 82.8393 45.5479C83.2253 45.1618 83.7487 44.9449 84.2945 44.9449H98.7003C99.2462 44.9449 99.7696 45.1618 100.156 45.5479C100.542 45.934 100.758 46.4577 100.758 47.0037C100.758 47.5498 100.542 48.0735 100.156 48.4596C99.7696 48.8457 99.2462 49.0626 98.7003 49.0626Z" fill="#FCF6E0"/>
<path d="M102.837 33.8683C102.476 33.8707 102.122 33.7785 101.808 33.6006L89.2954 26.374C89.0603 26.2388 88.8541 26.0586 88.6886 25.8437C88.5231 25.6288 88.4015 25.3834 88.3308 25.1215C88.2601 24.8595 88.2416 24.5862 88.2765 24.3172C88.3113 24.0481 88.3988 23.7886 88.5339 23.5534C88.6691 23.3181 88.8492 23.1119 89.064 22.9463C89.2788 22.7807 89.5242 22.659 89.786 22.5883C90.0478 22.5176 90.3209 22.4991 90.5899 22.534C90.8588 22.5689 91.1183 22.6564 91.3534 22.7916L103.866 30.0182C104.102 30.1527 104.309 30.3325 104.475 30.5474C104.641 30.7622 104.763 31.0078 104.833 31.27C104.904 31.5321 104.922 31.8057 104.887 32.075C104.852 32.3442 104.763 32.6038 104.627 32.8388C104.446 33.153 104.185 33.4137 103.87 33.5945C103.556 33.7752 103.2 33.8697 102.837 33.8683Z" fill="#FCF6E0"/>
<path d="M114.053 22.6269C113.69 22.6283 113.334 22.5339 113.019 22.3531C112.705 22.1723 112.444 21.9116 112.262 21.5974L105.039 9.16193C104.89 8.92759 104.79 8.66555 104.745 8.39155C104.7 8.11756 104.711 7.83729 104.777 7.56758C104.843 7.29788 104.963 7.04432 105.129 6.82217C105.296 6.60002 105.505 6.41387 105.746 6.27491C105.986 6.13594 106.252 6.04704 106.528 6.01356C106.803 5.98007 107.083 6.0027 107.349 6.08006C107.616 6.15743 107.864 6.28796 108.079 6.46376C108.293 6.63957 108.471 6.85703 108.599 7.10307L115.843 19.6209C116.024 19.9345 116.119 20.2903 116.119 20.6524C116.119 21.0145 116.023 21.3701 115.841 21.6833C115.66 21.9966 115.399 22.2563 115.085 22.4365C114.771 22.6166 114.415 22.7107 114.053 22.7092V22.6269Z" fill="#FCF6E0"/>
</g>
<defs>
<clipPath id="clip0_27_3033">
<rect width="519" height="687" fill="white"/>
</clipPath>
</defs>
</svg>
