<svg width="24" height="34" viewBox="0 0 24 34" fill="none" xmlns="http://www.w3.org/2000/svg">
<path d="M22.5387 33.628C22.4324 33.628 22.2907 33.5926 22.1135 33.5217C21.9718 33.4509 21.8124 33.38 21.6353 33.3091L2.50382 20.2891C2.00782 19.9349 1.61811 19.5983 1.33468 19.2794C1.08668 18.9251 0.962682 18.4823 0.962682 17.9509V16.3034C0.962682 15.772 1.08668 15.3469 1.33468 15.028C1.61811 14.7091 2.00782 14.3726 2.50382 14.0183L21.6353 0.998281C21.8124 0.891997 21.9718 0.803425 22.1135 0.732567C22.2907 0.661711 22.4324 0.626283 22.5387 0.626283C22.8575 0.626283 23.1233 0.732568 23.3358 0.945139C23.5484 1.12228 23.6547 1.388 23.6547 1.74228V7.42857C23.6547 7.99543 23.4953 8.43828 23.1764 8.75714C22.8575 9.04057 22.521 9.30628 22.1667 9.55428L10.5815 17.1537L22.1667 24.7531C22.521 25.0011 22.8575 25.2669 23.1764 25.5503C23.4953 25.8337 23.6547 26.2589 23.6547 26.8257V32.5651C23.6547 32.884 23.5484 33.1497 23.3358 33.3623C23.1233 33.5394 22.8575 33.628 22.5387 33.628Z" fill="#EFEFEF"/>
</svg>
