<svg width="33" height="33" viewBox="0 0 33 33" fill="none" xmlns="http://www.w3.org/2000/svg">
<path d="M13.7124 1.20832C15.8131 -0.482454 16.595 -0.430763 19.0111 1.55724C22.2056 4.81387 25.4014 8.0705 28.5987 11.3271C29.5724 12.3201 30.5631 13.2979 31.524 14.3016C31.924 14.6903 32.2024 15.1891 32.3247 15.7362C32.447 16.2833 32.4079 16.8546 32.2122 17.3795C31.8436 18.4973 31.0361 19.2447 29.9048 19.3459C28.9993 19.4278 28.8949 19.8435 28.9013 20.5779C28.9212 23.3061 28.9212 26.0301 28.9013 28.7497C28.8821 31.4549 27.5675 32.7666 24.9 32.7731C23.4832 32.7731 22.0642 32.7537 20.6389 32.7731C19.6822 32.7903 19.286 32.3251 19.2881 31.4011C19.2881 29.1438 19.2881 26.8859 19.2881 24.6272C19.2881 23.0032 18.7853 22.497 17.2108 22.4733C16.5013 22.4626 15.7918 22.4604 15.0802 22.4733C13.6293 22.5013 13.0732 23.0462 13.0625 24.4936C13.0455 26.7509 13.0625 29.0167 13.0519 31.2654C13.0519 32.5383 12.8196 32.7558 11.5434 32.7623C10.0882 32.7623 8.63305 32.7774 7.18 32.7623C4.92584 32.7364 3.51539 31.3451 3.49408 29.0814C3.46851 26.1801 3.4813 23.2659 3.49408 20.3733C3.49408 19.8435 3.49408 19.4278 2.75264 19.3718C2.15904 19.3541 1.5868 19.1439 1.12032 18.7724C0.653842 18.4009 0.31783 17.8877 0.161859 17.3084C-0.213123 16.0871 0.112846 15.0102 1.04391 14.0776C4.92157 10.192 8.78503 6.29142 12.6343 2.37571C13.0071 1.99448 13.3502 1.60032 13.7124 1.20832Z" fill="#EFEFEF"/>
</svg>
