<svg width="25" height="34" viewBox="0 0 25 34" fill="none" xmlns="http://www.w3.org/2000/svg">
<path d="M24.5556 1.95176V33.6779C24.5556 33.7204 24.5471 33.7624 24.5306 33.8016C24.5142 33.8409 24.49 33.8765 24.4596 33.9064C24.4292 33.9363 24.3931 33.96 24.3535 33.9761C24.3138 33.9921 24.2713 34.0003 24.2285 34H23.9441C23.8579 33.9997 23.7751 33.9663 23.7132 33.9067L12.4958 22.7769C12.4343 22.7168 12.3513 22.6832 12.265 22.6832C12.1786 22.6832 12.0957 22.7168 12.0341 22.7769L0.812389 33.9025C0.75048 33.962 0.667738 33.9954 0.581508 33.9958H0.327101C0.284248 33.996 0.241756 33.9879 0.202083 33.9718C0.162411 33.9558 0.126336 33.9321 0.0959338 33.9022C0.0655321 33.8722 0.041401 33.8366 0.0249369 33.7974C0.00847278 33.7582 2.34497e-07 33.7161 1.16193e-06 33.6736V1.95176C-0.000279783 1.69555 0.0503894 1.4418 0.149107 1.20501C0.247824 0.968225 0.392657 0.75305 0.575323 0.571785C0.757989 0.390519 0.974902 0.246721 1.21367 0.14861C1.45244 0.0504988 1.70837 -1.51352e-07 1.96684 0H22.5909C22.8491 0.000278142 23.1049 0.0509821 23.3434 0.149218C23.5819 0.247453 23.7986 0.391297 23.981 0.572535C24.1634 0.753772 24.3081 0.968855 24.4067 1.2055C24.5052 1.44215 24.5558 1.69573 24.5556 1.95176Z" fill="#EFEFEF"/>
</svg>
