<svg width="32" height="33" viewBox="0 0 32 33" fill="none" xmlns="http://www.w3.org/2000/svg">
<path d="M30.7243 19.7843C30.0851 19.276 29.4459 18.7419 28.7918 18.2766C28.2166 17.8674 28.061 17.3699 27.9907 16.6591C27.8736 15.4486 28.3295 14.7077 29.301 14.1133C29.8587 13.7304 30.3897 13.3095 30.8905 12.8532C31.0947 12.6998 31.2564 12.4957 31.3598 12.2606C31.4632 12.0256 31.5048 11.7675 31.4806 11.5114C31.4692 11.344 31.4289 11.18 31.3613 11.0268C30.296 9.12923 29.2307 7.22523 28.0951 5.35999C27.7244 4.74614 27.0767 4.61906 26.3907 4.89045C25.564 5.21783 24.7203 5.50214 23.9213 5.88553C23.2395 6.21507 22.7197 6.10091 22.0528 5.75414C21.0813 5.25876 20.6061 4.60829 20.5763 3.5249C20.5245 2.84595 20.4334 2.17064 20.3036 1.50243C20.163 0.554738 19.641 0.0119659 18.6673 0.00765815C16.7157 0.00765815 14.7641 -0.00957269 12.8125 0.00765815C11.8494 0.00765815 11.3211 0.541814 11.189 1.51536C11.0654 2.43721 10.9312 3.36121 10.7799 4.2809C10.6031 5.35783 8.87729 6.36584 7.86313 5.97814C7.0109 5.6486 6.14588 5.29753 5.29365 4.94214C4.3988 4.56737 3.68079 4.78276 3.19502 5.6163C2.20429 7.31569 1.23488 9.028 0.26973 10.7425C-0.203259 11.5825 -0.0498575 12.3256 0.695846 12.9308C1.44155 13.536 2.18725 14.1348 2.95426 14.7249C3.10021 14.8221 3.22245 14.9515 3.31177 15.1033C3.40108 15.2552 3.45514 15.4255 3.46987 15.6016C3.59557 16.9262 3.43577 18.0742 2.10416 18.7699C1.63969 19.0133 1.25193 19.416 0.842857 19.7542C-0.130819 20.564 -0.235221 21.1348 0.399692 22.2699C0.94086 23.237 1.50333 24.1911 2.05089 25.1561C3.97907 28.557 3.61475 28.5678 7.31557 26.9933C8.12945 26.6465 8.76224 26.6444 9.58251 27.101C10.4923 27.6071 10.8374 28.2447 10.8992 29.2096C10.944 29.9225 11.0888 30.629 11.1911 31.3398C11.3253 32.2595 11.8473 32.7398 12.7741 32.7398C14.7627 32.7398 16.7512 32.7398 18.7397 32.7398C19.6751 32.7398 20.1694 32.2207 20.2972 31.3096C20.425 30.3985 20.5891 29.5392 20.6637 28.6475C20.7191 28.0013 21.06 27.6933 21.55 27.3185C22.5748 26.5345 23.5272 26.5776 24.5839 27.1592C25.0963 27.4059 25.6211 27.6252 26.1563 27.8161C27.0874 28.2038 27.8139 27.9905 28.3252 27.0924C29.2797 25.4138 30.2371 23.7367 31.1973 22.061C31.7171 21.1477 31.5126 20.4025 30.7243 19.7843ZM15.7442 22.4185C14.155 22.4179 12.6311 21.7794 11.5076 20.6432C10.3841 19.507 9.75295 17.9662 9.75295 16.3597C9.75295 14.7532 10.3841 13.2125 11.5076 12.0763C12.6311 10.9401 14.155 10.3015 15.7442 10.3009C17.3337 10.3009 18.8581 10.9393 19.9821 12.0755C21.106 13.2118 21.7375 14.7528 21.7375 16.3597C21.7375 17.9666 21.106 19.5077 19.9821 20.6439C18.8581 21.7802 17.3337 22.4185 15.7442 22.4185Z" fill="#EFEFEF"/>
</svg>
